<svg width="70" height="70" viewBox="0 0 70 70" fill="none" xmlns="http://www.w3.org/2000/svg">
<path d="M69.8222 20.5802C69.6581 16.8607 69.0565 14.3038 68.1946 12.088C67.3056 9.73614 65.9379 7.63053 64.1462 5.88005C62.3952 4.10236 60.2752 2.72096 57.9501 1.84606C55.7213 0.984567 53.1771 0.382887 49.457 0.219066C45.709 0.0410236 44.5193 0 35.0136 0C25.508 0 24.3182 0.0410236 20.5842 0.205118C16.8641 0.369213 14.3066 0.971166 12.091 1.83212C9.73802 2.72096 7.63201 4.08842 5.88119 5.88005C4.10316 7.6304 2.72217 9.74995 1.84642 12.0746C0.984758 14.3038 0.383098 16.847 0.219109 20.5662C0.0411684 24.3135 0 25.503 0 35.0068C0 44.5106 0.0411683 45.7003 0.205158 49.4335C0.369284 53.153 0.971354 55.7098 1.83315 57.9256C2.72217 60.2775 4.10316 62.3831 5.88119 64.1336C7.63201 65.9113 9.75198 67.2927 12.0771 68.1676C14.3065 69.0291 16.8502 69.6308 20.5709 69.7946C24.3042 69.9593 25.4947 69.9997 35.0003 69.9997C44.506 69.9997 45.6958 69.9593 49.4298 69.7946C53.1498 69.6306 55.7073 69.0292 57.9229 68.1676C60.2499 67.2681 62.3632 65.8924 64.1274 64.1286C65.8916 62.3649 67.2677 60.2521 68.1675 57.9256C69.0286 55.6966 69.6309 53.1528 69.7948 49.4335C69.959 45.7003 70 44.5106 70 35.0068C70 25.503 69.9861 24.3133 69.8222 20.5802ZM63.5173 49.16C63.3666 52.5786 62.7923 54.4247 62.3136 55.6554C61.137 58.7048 58.7163 61.1252 55.6662 62.3015C54.4352 62.7801 52.5755 63.3543 49.1695 63.5043C45.4767 63.669 44.3692 63.7094 35.0276 63.7094C25.6859 63.7094 24.5645 63.669 20.8849 63.5043C17.4656 63.3543 15.6192 62.7801 14.3883 62.3015C12.8705 61.7406 11.489 60.8517 10.3674 59.6894C9.20489 58.5544 8.31587 57.1869 7.75483 55.6693C7.27613 54.4386 6.70182 52.5786 6.55178 49.1739C6.38711 45.4818 6.34663 44.3739 6.34663 35.034C6.34663 25.6942 6.38711 24.573 6.55178 20.8948C6.70182 17.4762 7.27613 15.6301 7.75483 14.3994C8.31587 12.8813 9.20489 11.5003 10.3814 10.3787C11.5161 9.21637 12.8838 8.32752 14.4022 7.76728C15.6332 7.28867 17.4935 6.71434 20.8989 6.56378C24.5917 6.39969 25.6999 6.35866 35.0408 6.35866C44.3964 6.35866 45.5039 6.39969 49.1835 6.56378C52.6028 6.71448 54.4492 7.28853 55.6801 7.76714C57.1979 8.32752 58.5795 9.21637 59.7009 10.3787C60.8635 11.5138 61.7525 12.8813 62.3136 14.3994C62.7923 15.6301 63.3666 17.4895 63.5172 20.8948C63.6813 24.587 63.7223 25.6942 63.7223 35.034C63.7223 44.3739 63.6814 45.4679 63.5173 49.16Z" fill="#51783F"/>
<path d="M35.0138 17.0246C25.0845 17.0246 17.0283 25.0786 17.0283 35.0066C17.0283 44.9346 25.0845 52.9887 35.0138 52.9887C44.9435 52.9887 52.9993 44.9346 52.9993 35.0066C52.9993 25.0786 44.9435 17.0246 35.0138 17.0246ZM35.0138 46.671C28.5721 46.671 23.3469 41.4476 23.3469 35.0066C23.3469 28.5657 28.5721 23.3423 35.0137 23.3423C41.4559 23.3423 46.6805 28.5657 46.6805 35.0066C46.6805 41.4476 41.4558 46.671 35.0138 46.671ZM57.9097 16.3135C57.9097 18.6319 56.0295 20.5116 53.7103 20.5116C51.3916 20.5116 49.5115 18.6319 49.5115 16.3135C49.5115 13.9949 51.3916 12.1157 53.7104 12.1157C56.0295 12.1157 57.9097 13.9947 57.9097 16.3135Z" fill="#51783F"/>
</svg>
