<svg width="103" height="57" viewBox="0 0 103 57" fill="none" xmlns="http://www.w3.org/2000/svg">
<path d="M67.1357 25.1331L44.4541 16.0362C43.1499 15.5131 41.6085 15.5327 40.3302 16.0878C39.0511 16.6436 38.2881 17.6254 38.2881 18.7152V36.753C38.2881 37.8376 39.0465 38.8177 40.3169 39.374C40.9803 39.6645 41.7158 39.8104 42.4529 39.8104C43.1426 39.8097 43.8212 39.6832 44.4276 39.4424L67.1098 30.5022C67.7705 30.2418 68.3231 29.8555 68.7091 29.3841C69.0951 28.9126 69.3003 28.3735 69.3029 27.8237C69.306 27.2737 69.1062 26.7333 68.7247 26.2597C68.3432 25.786 67.7942 25.3968 67.1357 25.1331ZM44.3045 34.4838V21.0027L61.2565 27.8018L44.3045 34.4838Z" fill="#51783F"/>
<path d="M101.911 13.453L101.906 13.4186C101.819 12.8129 100.954 7.42505 97.3804 4.68453C93.2501 1.46117 88.5673 1.0696 86.3155 0.881905C86.1454 0.86814 85.9754 0.853196 85.8056 0.837075L85.6261 0.823405C72.0538 0.0999492 51.5561 0.00117587 51.351 0.000587936L51.3329 0L51.3149 0.000587936C51.1097 0.00117587 30.6121 0.0999492 16.9172 0.823405L16.7363 0.837075C16.5906 0.851479 16.4299 0.864708 16.2553 0.8797C14.0293 1.06784 9.39693 1.46014 5.25501 4.79991C1.85159 7.51118 0.867847 12.7836 0.766786 13.3761L0.755156 13.453C0.724476 13.7051 0 19.7057 0 25.7297V31.361C0 37.3851 0.724476 43.3856 0.755156 43.6383L0.76057 43.676C0.847595 44.2721 1.71223 49.5613 5.26904 52.3028C9.1527 55.4182 14.063 55.8304 16.7043 56.0521C17.1217 56.0871 17.4813 56.1169 17.7263 56.1485L17.9637 56.1726C25.8004 56.7193 50.371 56.9884 51.4127 56.9994L51.4442 57L51.4755 56.9994C51.6806 56.9988 72.1775 56.9001 85.7503 56.1766L85.9295 56.1629C86.1012 56.1462 86.2939 56.1313 86.5052 56.1152C88.7189 55.9429 93.3261 55.5853 97.4109 52.2906C100.814 49.5791 101.799 44.3064 101.899 43.7145L101.911 43.6377C101.941 43.385 102.667 37.385 102.667 31.361V25.7297C102.666 19.7056 101.941 13.7057 101.911 13.453ZM96.6495 31.361C96.6495 36.9367 95.9854 42.6787 95.9226 43.2058C95.6673 44.658 94.6292 47.9937 92.9712 49.3149C90.4145 51.3767 87.7883 51.5811 85.8708 51.7299C85.657 51.7459 85.4434 51.7635 85.2301 51.7826C72.1023 52.4785 52.3786 52.5852 51.4701 52.5893C50.451 52.5784 26.2397 52.3068 18.6421 51.7896C18.2527 51.743 17.832 51.7074 17.3888 51.6707C15.14 51.4818 12.0616 51.2234 9.69471 49.3149L9.63896 49.2713C8.00974 48.0271 7.00173 44.9076 6.74547 43.223C6.69774 42.8247 6.01638 37.0147 6.01638 31.361V25.7297C6.01638 20.1605 6.6791 14.4246 6.74326 13.8866C7.04805 12.1762 8.10539 9.04246 9.69471 7.77575C12.3295 5.65139 15.1079 5.41607 16.9455 5.26041C17.1209 5.24542 17.2846 5.23175 17.4358 5.21735C30.7546 4.518 50.6201 4.41408 51.3329 4.41011C52.0458 4.41349 71.9042 4.518 85.1048 5.21735C85.2668 5.23234 85.4439 5.24719 85.6342 5.26335C87.5242 5.42122 90.3808 5.66006 93.0026 7.70976L93.0267 7.72872C94.6561 8.97294 95.6641 12.1469 95.9202 13.8653C95.9657 14.2414 96.6495 20.0639 96.6495 25.7297V31.361Z" fill="#51783F"/>
</svg>
